<svg xmlns="http://www.w3.org/2000/svg" width="264.897" height="264.897" viewBox="0 0 264.897 264.897">
  <path id="Subtraction_19" data-name="Subtraction 19" d="M289.085,301.8a2.812,2.812,0,1,1,2.812-2.812A2.815,2.815,0,0,1,289.085,301.8Zm-21.866,0a2.812,2.812,0,1,1,2.812-2.812A2.815,2.815,0,0,1,267.219,301.8Zm-21.242,0a2.812,2.812,0,1,1,2.812-2.812A2.815,2.815,0,0,1,245.977,301.8Zm-21.866,0a2.812,2.812,0,1,1,2.812-2.812A2.815,2.815,0,0,1,224.111,301.8Zm-21.242,0a2.812,2.812,0,1,1,2.812-2.812A2.815,2.815,0,0,1,202.869,301.8ZM181,301.8a2.812,2.812,0,1,1,2.812-2.812A2.815,2.815,0,0,1,181,301.8Zm-21.242,0a2.812,2.812,0,1,1,2.812-2.812A2.815,2.815,0,0,1,159.761,301.8Zm-21.866,0a2.812,2.812,0,1,1,2.812-2.812A2.815,2.815,0,0,1,137.894,301.8Zm-21.866,0a2.812,2.812,0,1,1,2.812-2.812A2.815,2.815,0,0,1,116.028,301.8Zm-21.242,0a2.812,2.812,0,1,1,2.812-2.812A2.815,2.815,0,0,1,94.786,301.8Zm-21.866,0a2.812,2.812,0,1,1,2.812-2.812A2.815,2.815,0,0,1,72.92,301.8Zm-21.242,0a2.812,2.812,0,1,1,2.812-2.812A2.815,2.815,0,0,1,51.678,301.8Zm-21.866,0a2.812,2.812,0,1,1,2.812-2.812A2.815,2.815,0,0,1,29.812,301.8Zm259.274-25.615a2.812,2.812,0,1,1,2.812-2.812A2.815,2.815,0,0,1,289.085,276.185Zm-21.866,0a2.812,2.812,0,1,1,2.812-2.812A2.815,2.815,0,0,1,267.219,276.185Zm21.866-26.24a2.812,2.812,0,1,1,2.812-2.812A2.815,2.815,0,0,1,289.085,249.945Zm-21.866,0a2.812,2.812,0,1,1,2.812-2.812A2.815,2.815,0,0,1,267.219,249.945Zm21.866-25.615a2.812,2.812,0,1,1,2.812-2.812A2.815,2.815,0,0,1,289.085,224.33Zm-21.866,0a2.812,2.812,0,1,1,2.812-2.812A2.815,2.815,0,0,1,267.219,224.33Zm21.866-26.24a2.812,2.812,0,1,1,2.812-2.812A2.815,2.815,0,0,1,289.085,198.09Zm-21.866,0a2.812,2.812,0,1,1,2.812-2.812A2.815,2.815,0,0,1,267.219,198.09Zm21.866-25.615a2.812,2.812,0,1,1,2.812-2.812A2.815,2.815,0,0,1,289.085,172.475Zm-21.866,0a2.812,2.812,0,1,1,2.812-2.812A2.815,2.815,0,0,1,267.219,172.475Zm21.866-26.24a2.812,2.812,0,1,1,2.812-2.812A2.815,2.815,0,0,1,289.085,146.236Zm-21.866,0a2.812,2.812,0,1,1,2.812-2.812A2.815,2.815,0,0,1,267.219,146.236Zm21.866-25.615a2.812,2.812,0,1,1,2.812-2.812A2.815,2.815,0,0,1,289.085,120.621Zm-21.866,0a2.812,2.812,0,1,1,2.812-2.812A2.815,2.815,0,0,1,267.219,120.621Zm21.866-26.24a2.812,2.812,0,1,1,2.812-2.812A2.815,2.815,0,0,1,289.085,94.38Zm-21.866,0a2.812,2.812,0,1,1,2.812-2.812A2.815,2.815,0,0,1,267.219,94.38Zm21.866-25.615a2.812,2.812,0,1,1,2.812-2.812A2.815,2.815,0,0,1,289.085,68.765Zm-21.866,0a2.812,2.812,0,1,1,2.812-2.812A2.815,2.815,0,0,1,267.219,68.765Zm21.866-26.239a2.812,2.812,0,1,1,2.812-2.812A2.815,2.815,0,0,1,289.085,42.526Zm-21.866,0a2.812,2.812,0,1,1,2.812-2.812A2.815,2.815,0,0,1,267.219,42.526Z" transform="translate(-27 -36.903)" fill="#4cdecb"/>
</svg>
