<svg xmlns="http://www.w3.org/2000/svg" width="264.897" height="264.897" viewBox="0 0 264.897 264.897">
  <path id="Subtraction_19" data-name="Subtraction 19" d="M262.086,295.8a2.812,2.812,0,1,1,2.812-2.812A2.815,2.815,0,0,1,262.086,295.8Zm-21.866,0a2.812,2.812,0,1,1,2.812-2.812A2.815,2.815,0,0,1,240.22,295.8Zm-21.242,0a2.812,2.812,0,1,1,2.812-2.812A2.815,2.815,0,0,1,218.978,295.8Zm-21.866,0a2.812,2.812,0,1,1,2.812-2.812A2.815,2.815,0,0,1,197.112,295.8Zm-21.242,0a2.812,2.812,0,1,1,2.812-2.812A2.815,2.815,0,0,1,175.87,295.8ZM154,295.8a2.812,2.812,0,1,1,2.812-2.812A2.815,2.815,0,0,1,154,295.8Zm-21.242,0a2.812,2.812,0,1,1,2.812-2.812A2.815,2.815,0,0,1,132.762,295.8Zm-21.866,0a2.812,2.812,0,1,1,2.812-2.812A2.815,2.815,0,0,1,110.9,295.8Zm-21.866,0a2.812,2.812,0,1,1,2.812-2.812A2.815,2.815,0,0,1,89.029,295.8Zm-21.242,0a2.812,2.812,0,1,1,2.812-2.812A2.815,2.815,0,0,1,67.787,295.8Zm-21.866,0a2.812,2.812,0,1,1,2.812-2.812A2.815,2.815,0,0,1,45.921,295.8Zm-21.242,0a2.812,2.812,0,1,1,2.812-2.812A2.815,2.815,0,0,1,24.679,295.8Zm-21.866,0a2.812,2.812,0,1,1,2.812-2.812A2.815,2.815,0,0,1,2.813,295.8Zm21.866-25.615a2.812,2.812,0,1,1,2.812-2.812A2.815,2.815,0,0,1,24.679,270.185Zm-21.866,0a2.812,2.812,0,1,1,2.812-2.812A2.815,2.815,0,0,1,2.813,270.185Zm21.866-26.24a2.812,2.812,0,1,1,2.812-2.812A2.815,2.815,0,0,1,24.679,243.945Zm-21.866,0a2.812,2.812,0,1,1,2.812-2.812A2.815,2.815,0,0,1,2.813,243.945ZM24.679,218.33a2.812,2.812,0,1,1,2.812-2.812A2.815,2.815,0,0,1,24.679,218.33Zm-21.866,0a2.812,2.812,0,1,1,2.812-2.812A2.815,2.815,0,0,1,2.813,218.33Zm21.866-26.24a2.812,2.812,0,1,1,2.812-2.812A2.815,2.815,0,0,1,24.679,192.09Zm-21.866,0a2.812,2.812,0,1,1,2.812-2.812A2.815,2.815,0,0,1,2.813,192.09Zm21.866-25.615a2.812,2.812,0,1,1,2.812-2.812A2.815,2.815,0,0,1,24.679,166.475Zm-21.866,0a2.812,2.812,0,1,1,2.812-2.812A2.815,2.815,0,0,1,2.813,166.475Zm21.866-26.24a2.812,2.812,0,1,1,2.812-2.812A2.815,2.815,0,0,1,24.679,140.235Zm-21.866,0a2.812,2.812,0,1,1,2.812-2.812A2.815,2.815,0,0,1,2.813,140.235ZM24.679,114.62a2.812,2.812,0,1,1,2.812-2.812A2.815,2.815,0,0,1,24.679,114.62Zm-21.866,0a2.812,2.812,0,1,1,2.812-2.812A2.815,2.815,0,0,1,2.813,114.62ZM24.679,88.38a2.812,2.812,0,1,1,2.812-2.812A2.815,2.815,0,0,1,24.679,88.38Zm-21.866,0a2.812,2.812,0,1,1,2.812-2.812A2.815,2.815,0,0,1,2.813,88.38ZM24.679,62.765a2.812,2.812,0,1,1,2.812-2.812A2.815,2.815,0,0,1,24.679,62.765Zm-21.866,0a2.812,2.812,0,1,1,2.812-2.812A2.815,2.815,0,0,1,2.813,62.765ZM24.679,36.526a2.812,2.812,0,1,1,2.812-2.812A2.815,2.815,0,0,1,24.679,36.526Zm-21.866,0a2.812,2.812,0,1,1,2.812-2.812A2.815,2.815,0,0,1,2.813,36.526Z" transform="translate(-0.001 -30.902)" fill="#4cdecb"/>
</svg>
