<svg xmlns="http://www.w3.org/2000/svg" width="264.897" height="264.897" viewBox="0 0 264.897 264.897">
  <path id="Subtraction_19" data-name="Subtraction 19" d="M275.953,268.8a2.812,2.812,0,1,1,2.812-2.812A2.815,2.815,0,0,1,275.953,268.8Zm-21.866,0a2.812,2.812,0,1,1,2.812-2.812A2.815,2.815,0,0,1,254.086,268.8Zm-21.242,0a2.812,2.812,0,1,1,2.812-2.812A2.815,2.815,0,0,1,232.844,268.8Zm-21.866,0a2.812,2.812,0,1,1,2.812-2.812A2.815,2.815,0,0,1,210.978,268.8Zm-21.242,0a2.812,2.812,0,1,1,2.812-2.812A2.815,2.815,0,0,1,189.736,268.8Zm-21.866,0a2.812,2.812,0,1,1,2.812-2.812A2.815,2.815,0,0,1,167.87,268.8Zm-21.242,0a2.812,2.812,0,1,1,2.812-2.812A2.815,2.815,0,0,1,146.628,268.8Zm-21.866,0a2.812,2.812,0,1,1,2.812-2.812A2.815,2.815,0,0,1,124.762,268.8Zm-21.866,0a2.812,2.812,0,1,1,2.812-2.812A2.815,2.815,0,0,1,102.9,268.8Zm-21.242,0a2.812,2.812,0,1,1,2.812-2.812A2.815,2.815,0,0,1,81.653,268.8Zm-21.866,0a2.812,2.812,0,1,1,2.812-2.812A2.815,2.815,0,0,1,59.787,268.8Zm-21.242,0a2.812,2.812,0,1,1,2.812-2.812A2.815,2.815,0,0,1,38.545,268.8Zm-21.866,0a2.812,2.812,0,1,1,2.812-2.812A2.815,2.815,0,0,1,16.679,268.8Zm259.274-25.615a2.812,2.812,0,1,1,2.812-2.812A2.815,2.815,0,0,1,275.953,243.185Zm-21.866,0a2.812,2.812,0,1,1,2.812-2.812A2.815,2.815,0,0,1,254.086,243.185Zm21.866-26.24a2.812,2.812,0,1,1,2.812-2.812A2.815,2.815,0,0,1,275.953,216.945Zm-21.866,0a2.812,2.812,0,1,1,2.812-2.812A2.815,2.815,0,0,1,254.086,216.945Zm21.866-25.615a2.812,2.812,0,1,1,2.812-2.812A2.815,2.815,0,0,1,275.953,191.33Zm-21.866,0a2.812,2.812,0,1,1,2.812-2.812A2.815,2.815,0,0,1,254.086,191.33Zm21.866-26.24a2.812,2.812,0,1,1,2.812-2.812A2.815,2.815,0,0,1,275.953,165.09Zm-21.866,0a2.812,2.812,0,1,1,2.812-2.812A2.815,2.815,0,0,1,254.086,165.09Zm21.866-25.615a2.812,2.812,0,1,1,2.812-2.812A2.815,2.815,0,0,1,275.953,139.475Zm-21.866,0a2.812,2.812,0,1,1,2.812-2.812A2.815,2.815,0,0,1,254.086,139.475Zm21.866-26.24a2.812,2.812,0,1,1,2.812-2.812A2.815,2.815,0,0,1,275.953,113.235Zm-21.866,0a2.812,2.812,0,1,1,2.812-2.812A2.815,2.815,0,0,1,254.086,113.235ZM275.953,87.62a2.812,2.812,0,1,1,2.812-2.812A2.815,2.815,0,0,1,275.953,87.62Zm-21.866,0a2.812,2.812,0,1,1,2.812-2.812A2.815,2.815,0,0,1,254.086,87.62Zm21.866-26.24a2.812,2.812,0,1,1,2.812-2.812A2.815,2.815,0,0,1,275.953,61.38Zm-21.866,0a2.812,2.812,0,1,1,2.812-2.812A2.815,2.815,0,0,1,254.086,61.38Zm21.866-25.615a2.812,2.812,0,1,1,2.812-2.812A2.815,2.815,0,0,1,275.953,35.765Zm-21.866,0a2.812,2.812,0,1,1,2.812-2.812A2.815,2.815,0,0,1,254.086,35.765Zm21.866-26.24a2.812,2.812,0,1,1,2.812-2.812A2.815,2.815,0,0,1,275.953,9.526Zm-21.866,0A2.812,2.812,0,1,1,256.9,6.714,2.815,2.815,0,0,1,254.086,9.526Z" transform="translate(-13.867 -3.902)" fill="#b2ea00"/>
</svg>
