<svg xmlns="http://www.w3.org/2000/svg" width="264.897" height="264.897" viewBox="0 0 264.897 264.897">
  <path id="Subtraction_19" data-name="Subtraction 19" d="M262.086,298.8a2.812,2.812,0,1,1,2.812-2.812A2.815,2.815,0,0,1,262.086,298.8Zm-21.866,0a2.812,2.812,0,1,1,2.812-2.812A2.815,2.815,0,0,1,240.22,298.8Zm-21.242,0a2.812,2.812,0,1,1,2.812-2.812A2.815,2.815,0,0,1,218.978,298.8Zm-21.866,0a2.812,2.812,0,1,1,2.812-2.812A2.815,2.815,0,0,1,197.112,298.8Zm-21.242,0a2.812,2.812,0,1,1,2.812-2.812A2.815,2.815,0,0,1,175.87,298.8ZM154,298.8a2.812,2.812,0,1,1,2.812-2.812A2.815,2.815,0,0,1,154,298.8Zm-21.242,0a2.812,2.812,0,1,1,2.812-2.812A2.815,2.815,0,0,1,132.762,298.8Zm-21.866,0a2.812,2.812,0,1,1,2.812-2.812A2.815,2.815,0,0,1,110.9,298.8Zm-21.866,0a2.812,2.812,0,1,1,2.812-2.812A2.815,2.815,0,0,1,89.029,298.8Zm-21.242,0a2.812,2.812,0,1,1,2.812-2.812A2.815,2.815,0,0,1,67.787,298.8Zm-21.866,0a2.812,2.812,0,1,1,2.812-2.812A2.815,2.815,0,0,1,45.921,298.8Zm-21.242,0a2.812,2.812,0,1,1,2.812-2.812A2.815,2.815,0,0,1,24.679,298.8Zm-21.866,0a2.812,2.812,0,1,1,2.812-2.812A2.815,2.815,0,0,1,2.813,298.8Zm21.866-25.615a2.812,2.812,0,1,1,2.812-2.812A2.815,2.815,0,0,1,24.679,273.184Zm-21.866,0a2.812,2.812,0,1,1,2.812-2.812A2.815,2.815,0,0,1,2.813,273.184Zm21.866-26.24a2.812,2.812,0,1,1,2.812-2.812A2.815,2.815,0,0,1,24.679,246.945Zm-21.866,0a2.812,2.812,0,1,1,2.812-2.812A2.815,2.815,0,0,1,2.813,246.945ZM24.679,221.33a2.812,2.812,0,1,1,2.812-2.812A2.815,2.815,0,0,1,24.679,221.33Zm-21.866,0a2.812,2.812,0,1,1,2.812-2.812A2.815,2.815,0,0,1,2.813,221.33Zm21.866-26.24a2.812,2.812,0,1,1,2.812-2.812A2.815,2.815,0,0,1,24.679,195.089Zm-21.866,0a2.812,2.812,0,1,1,2.812-2.812A2.815,2.815,0,0,1,2.813,195.089Zm21.866-25.615a2.812,2.812,0,1,1,2.812-2.812A2.815,2.815,0,0,1,24.679,169.475Zm-21.866,0a2.812,2.812,0,1,1,2.812-2.812A2.815,2.815,0,0,1,2.813,169.475Zm21.866-26.24a2.812,2.812,0,1,1,2.812-2.812A2.815,2.815,0,0,1,24.679,143.235Zm-21.866,0a2.812,2.812,0,1,1,2.812-2.812A2.815,2.815,0,0,1,2.813,143.235ZM24.679,117.62a2.812,2.812,0,1,1,2.812-2.812A2.815,2.815,0,0,1,24.679,117.62Zm-21.866,0a2.812,2.812,0,1,1,2.812-2.812A2.815,2.815,0,0,1,2.813,117.62ZM24.679,91.38a2.812,2.812,0,1,1,2.812-2.812A2.815,2.815,0,0,1,24.679,91.38Zm-21.866,0a2.812,2.812,0,1,1,2.812-2.812A2.815,2.815,0,0,1,2.813,91.38ZM24.679,65.765a2.812,2.812,0,1,1,2.812-2.812A2.815,2.815,0,0,1,24.679,65.765Zm-21.866,0a2.812,2.812,0,1,1,2.812-2.812A2.815,2.815,0,0,1,2.813,65.765ZM24.679,39.525a2.812,2.812,0,1,1,2.812-2.812A2.815,2.815,0,0,1,24.679,39.525Zm-21.866,0a2.812,2.812,0,1,1,2.812-2.812A2.815,2.815,0,0,1,2.813,39.525Z" transform="translate(-0.001 -33.902)" fill="#b2ea00"/>
</svg>
