<svg xmlns="http://www.w3.org/2000/svg" width="264.9" height="161.189" viewBox="0 0 264.9 161.189">
  <path id="Subtraction_19" data-name="Subtraction 19" d="M262.086,298.8a2.812,2.812,0,1,1,2.812-2.812,2.812,2.812,0,0,1-2.812,2.812Zm-21.866,0a2.812,2.812,0,1,1,2.812-2.812,2.812,2.812,0,0,1-2.812,2.812Zm-21.242,0a2.812,2.812,0,1,1,2.812-2.812,2.812,2.812,0,0,1-2.812,2.812Zm-21.866,0a2.812,2.812,0,1,1,2.812-2.812,2.812,2.812,0,0,1-2.812,2.812Zm-21.242,0a2.812,2.812,0,1,1,2.812-2.812,2.812,2.812,0,0,1-2.812,2.812Zm-21.87,0a2.812,2.812,0,1,1,2.812-2.812A2.812,2.812,0,0,1,154,298.8Zm-21.242,0a2.812,2.812,0,1,1,2.812-2.812,2.812,2.812,0,0,1-2.812,2.812Zm-21.866,0a2.8,2.8,0,1,1,.008,0Zm-21.866,0a2.812,2.812,0,1,1,2.812-2.812,2.812,2.812,0,0,1-2.812,2.812Zm-21.242,0a2.812,2.812,0,1,1,2.812-2.812,2.812,2.812,0,0,1-2.812,2.812Zm-21.866,0a2.812,2.812,0,1,1,2.812-2.812,2.812,2.812,0,0,1-2.812,2.812Zm-21.242,0a2.812,2.812,0,1,1,2.812-2.812,2.812,2.812,0,0,1-2.812,2.812Zm-21.866,0a2.812,2.812,0,1,1,2.812-2.812A2.812,2.812,0,0,1,2.81,298.8Zm21.866-25.615a2.812,2.812,0,1,1,2.812-2.812,2.812,2.812,0,0,1-2.812,2.812Zm-21.866,0a2.812,2.812,0,1,1,2.812-2.812,2.812,2.812,0,0,1-2.812,2.812Zm21.866-26.24a2.812,2.812,0,1,1,2.812-2.812,2.812,2.812,0,0,1-2.812,2.812Zm-21.866,0a2.812,2.812,0,1,1,2.812-2.812,2.812,2.812,0,0,1-2.812,2.812ZM24.679,221.33a2.812,2.812,0,1,1,2.812-2.812A2.812,2.812,0,0,1,24.679,221.33Zm-21.866,0a2.812,2.812,0,1,1,2.812-2.812,2.812,2.812,0,0,1-2.812,2.812Zm21.866-26.24a2.812,2.812,0,1,1,2.812-2.812,2.812,2.812,0,0,1-2.812,2.812Zm-21.866,0a2.812,2.812,0,1,1,2.812-2.812,2.812,2.812,0,0,1-2.812,2.812Zm21.866-25.615a2.812,2.812,0,1,1,2.812-2.812,2.812,2.812,0,0,1-2.812,2.812Zm-21.866,0a2.812,2.812,0,1,1,2.812-2.812,2.812,2.812,0,0,1-2.812,2.812Zm21.866-26.24a2.812,2.812,0,1,1,2.812-2.812,2.812,2.812,0,0,1-2.812,2.812Zm-21.866,0a2.812,2.812,0,1,1,2.812-2.812,2.812,2.812,0,0,1-2.812,2.812Z" transform="translate(0.002 -137.611)" fill="#b2ea00"/>
</svg>
