<?xml version="1.0" encoding="UTF-8"?>
<svg width="152px" height="24px" viewBox="0 0 152 24" version="1.1" xmlns="http://www.w3.org/2000/svg" xmlns:xlink="http://www.w3.org/1999/xlink">
    <title>Logo/Full/Color</title>
    <defs>
        <polygon id="path-1" points="0.0896558319 0.117888901 11.8809906 0.117888901 11.8809906 12 0.0896558319 12"></polygon>
        <polygon id="path-3" points="0.0562978261 0.176949153 14.9443489 0.176949153 14.9443489 10.7597085 0.0562978261 10.7597085"></polygon>
        <polygon id="path-5" points="0 0.110316178 12.3172663 0.110316178 12.3172663 9.17109432 0 9.17109432"></polygon>
        <polygon id="path-7" points="0.104438043 0.176949153 4.13264457 0.176949153 4.13264457 4.1192339 0.104438043 4.1192339"></polygon>
        <polygon id="path-9" points="0.199561957 0.0963254237 9.8163913 0.0963254237 9.8163913 16.3815458 0.199561957 16.3815458"></polygon>
    </defs>
    <g id="---Symbols" stroke="none" stroke-width="1" fill="none" fill-rule="evenodd">
        <g id="Nav/White/logged-out/Mobile" transform="translate(-16.000000, -20.000000)">
            <g id="Group-34" transform="translate(16.000000, 20.000000)">
                <g id="Group-3" transform="translate(10.945652, 11.823051)">
                    <mask id="mask-2" fill="white">
                        <use xlink:href="#path-1"></use>
                    </mask>
                    <g id="Clip-2"></g>
                    <path d="M10.2337924,3.02239322 C9.08222717,1.45039322 7.76523804,0.80259661 7.76523804,0.80259661 C6.46208587,0.0465966102 4.62631413,0.119816949 4.62631413,0.119816949 C4.25189022,0.95900339 3.39750978,1.54741017 2.40434674,1.54741017 C2.03549891,1.54741017 1.68544457,1.46625763 1.371325,1.32103729 C-0.0524358696,3.15378305 0.0871728261,4.68042712 0.098325,4.77968136 C0.180107609,7.13351186 2.4904663,11.9847661 11.7368576,12.0000203 C11.7641185,11.8084271 12.5301076,5.98842712 10.2337924,3.02239322" id="Fill-1" fill="#008BE6" mask="url(#mask-2)"></path>
                </g>
                <g id="Group-6" transform="translate(0.206522, 0.026441)">
                    <mask id="mask-4" fill="white">
                        <use xlink:href="#path-3"></use>
                    </mask>
                    <g id="Clip-5"></g>
                    <path d="M13.4864065,2.5071661 C10.9129391,0.0376067797 6.16128696,-0.874189831 0.0562978261,1.79509831 C0.0724065217,1.86343729 1.89351522,9.48933559 10.080037,10.7029627 L10.1017217,10.7049966 C10.2822217,10.7153695 10.4926674,10.7320475 10.7223196,10.7580814 C10.7223196,10.7584881 10.7223196,10.7590983 10.722113,10.7597085 L10.7227326,10.7597085 C10.8220696,9.53184407 11.8687217,8.56370847 13.1433739,8.56370847 C13.4093739,8.56370847 13.7011891,8.60906441 13.9525261,8.69306441 C16.3043957,5.15936949 13.7732652,2.76221695 13.4864065,2.5071661" id="Fill-4" fill="#FF8300" mask="url(#mask-4)"></path>
                </g>
                <g id="Group-9" transform="translate(0.000000, 10.602712)">
                    <mask id="mask-6" fill="white">
                        <use xlink:href="#path-5"></use>
                    </mask>
                    <g id="Clip-8"></g>
                    <path d="M12.3172663,2.54151864 L12.3172663,2.54111186 C11.492212,2.16077288 10.9197337,1.33582373 10.9197337,0.37480678 C10.9197337,0.316027119 10.9238641,0.246264407 10.9288207,0.181789831 C10.2037228,0.0998237288 9.66883152,0.11080678 9.66883152,0.11080678 C7.06066848,0.0998237288 4.68504891,1.33582373 3.7340163,2.09589153 C0.301418478,4.74321356 -0.00010326087,9.08070508 -0.00010326087,9.08070508 C0.181222826,9.10287458 6.25688587,9.90178983 9.9459837,6.30138305 C10.3036793,5.95317966 10.6675707,5.50734915 10.9552554,5.0584678 C10.9552554,5.0584678 11.0527337,4.90755254 11.2115489,4.65006102 C11.2117554,4.64945085 11.2121685,4.64904407 11.2125815,4.6484339 C11.3811033,4.0624678 11.7041033,3.33026441 12.3172663,2.54131525 L12.3172663,2.54151864 Z" id="Fill-7" fill="#56C71F" mask="url(#mask-6)"></path>
                </g>
                <path d="M51.9795185,16.3297424 C50.0541163,16.3297424 48.103312,14.9574712 48.103312,12.2379458 C48.103312,9.56804746 50.0289207,8.24581017 51.9541163,8.24581017 C53.8543228,8.24581017 55.7545293,9.5432339 55.7545293,12.2627593 C55.7545293,14.9574712 53.9051272,16.3297424 51.9795185,16.3297424 M52.283725,5.77564068 C50.4876054,5.77564068 48.9696707,6.52187797 48.0572576,7.71618305 L48.0572576,7.13164068 C48.0572576,6.38581017 47.4317033,5.77564068 46.674388,5.77564068 C45.9170728,5.77564068 45.2911054,6.38581017 45.2911054,7.13164068 L45.2911054,22.4442508 C45.2911054,23.2026915 45.9273989,23.8230305 46.697312,23.8230305 C47.467225,23.8230305 48.1035185,23.2026915 48.1035185,22.4442508 L48.103312,17.0534034 C49.2179098,18.3007932 50.839312,18.8499458 52.3343228,18.8499458 C55.4759315,18.8499458 58.5413337,16.5542847 58.5413337,12.2877763 C58.5413337,7.94642034 55.2731272,5.77564068 52.283725,5.77564068" id="Fill-10" fill="#333F48"></path>
                <path d="M36.501788,8.29566102 C38.4271902,8.29566102 40.3782011,9.6679322 40.3782011,12.3874576 C40.3782011,15.0573559 38.4525924,16.3795932 36.5271902,16.3795932 C34.6269837,16.3795932 32.7267772,15.0821695 32.7267772,12.3626441 C32.7267772,9.6679322 34.5763859,8.29566102 36.501788,8.29566102 M36.197788,18.8499661 C37.9937011,18.8499661 39.5116359,18.1037288 40.4240489,16.9094237 L40.4240489,17.4937627 C40.4240489,18.2395932 41.0498098,18.8499661 41.807125,18.8499661 C42.5644402,18.8499661 43.1902011,18.2395932 43.1902011,17.4937627 L43.1902011,2.18115254 C43.1902011,1.42271186 42.5541141,0.802372881 41.7839946,0.802372881 C41.0140815,0.802372881 40.3779946,1.42271186 40.3779946,2.18115254 L40.3782011,7.572 C39.2633967,6.32461017 37.6419946,5.77566102 36.1471902,5.77566102 C33.0055815,5.77566102 29.9399728,8.07111864 29.9399728,12.3376271 C29.9399728,16.6791864 33.2081793,18.8499661 36.197788,18.8499661" id="Fill-12" fill="#333F48"></path>
                <g id="Group-16" transform="translate(24.782609, 0.026441)">
                    <mask id="mask-8" fill="white">
                        <use xlink:href="#path-7"></use>
                    </mask>
                    <g id="Clip-15"></g>
                    <path d="M2.10584022,0.176928814 C0.965633696,0.176928814 0.104438043,1.0252678 0.104438043,2.14797966 C0.104438043,3.27089492 0.965633696,4.1192339 2.10584022,4.1192339 C3.24604674,4.1192339 4.13264457,3.27089492 4.13264457,2.14797966 C4.13264457,1.0252678 3.24604674,0.176928814 2.10584022,0.176928814" id="Fill-14" fill="#333F48" mask="url(#mask-8)"></path>
                </g>
                <path d="M26.8884489,5.77562034 L26.8884489,5.77562034 C26.1185359,5.77562034 25.4822424,6.39595932 25.4822424,7.1544 L25.4822424,17.4711458 L25.4822424,17.517722 L25.4847207,17.517722 C25.5101228,18.2546034 26.1346446,18.8499254 26.8884489,18.8499254 C27.6424598,18.8499254 28.266775,18.2546034 28.2921772,17.517722 L28.2944489,17.517722 L28.2944489,17.4735864 L28.2946554,17.4711458 L28.2946554,13.4920271 L28.2944489,10.6370441 L28.2946554,7.1544 C28.2946554,6.39595932 27.6585685,5.77562034 26.8884489,5.77562034" id="Fill-17" fill="#333F48"></path>
                <path d="M78.4640109,12.2867797 C78.4640109,14.5897627 80.0732283,16.2736271 82.336087,16.2736271 C84.6241413,16.2736271 86.2331522,14.5897627 86.2331522,12.2867797 C86.2331522,9.98420339 84.6241413,8.30013559 82.336087,8.30013559 C80.0732283,8.30013559 78.4640109,9.98420339 78.4640109,12.2867797 M88.9736957,12.3117966 C88.9736957,16.0261017 86.2079565,18.8487458 82.336087,18.8487458 C78.4892065,18.8487458 75.7232609,16.0261017 75.7232609,12.3117966 C75.7232609,8.59728814 78.4892065,5.77444068 82.336087,5.77444068 C86.2079565,5.77444068 88.9736957,8.59728814 88.9736957,12.3117966" id="Fill-19" fill="#FF8300"></path>
                <path d="M115.095205,10.4296678 C115.095205,7.30987119 112.857542,5.77448136 110.519303,5.77448136 C108.985466,5.77448136 107.42664,6.3936 106.496466,7.87915932 L106.49626,7.11807458 C106.49626,6.37915932 105.876282,5.77448136 105.125988,5.77448136 C104.375695,5.77448136 103.755716,6.37915932 103.755716,7.11807458 L103.755716,17.4818034 C103.755716,18.2341424 104.386847,18.8498034 105.150977,18.8498034 C105.915108,18.8498034 106.546445,18.2341424 106.546445,17.4818034 L106.546445,12.1135322 C106.546445,9.71170169 108.004901,8.39943051 109.739684,8.39943051 C111.172945,8.39943051 112.304271,9.29068475 112.304271,11.3955661 L112.304271,17.4818034 C112.304271,18.2341424 112.935608,18.8498034 113.699738,18.8498034 C114.463662,18.8498034 115.095205,18.2341424 115.095205,17.4818034 L115.095205,10.4296678 Z" id="Fill-21" fill="#FF8300"></path>
                <path d="M101.619765,10.4296678 C101.619765,7.30987119 99.3818957,5.77448136 97.0436565,5.77448136 C95.5100261,5.77448136 93.9512,6.3936 93.0208196,7.87915932 L93.0208196,7.11807458 C93.0208196,6.37915932 92.4008413,5.77448136 91.6505478,5.77448136 C90.9000478,5.77448136 90.2800696,6.37915932 90.2800696,7.11807458 L90.2800696,17.4818034 C90.2800696,18.2341424 90.9114065,18.8498034 91.675537,18.8498034 C92.4396674,18.8498034 93.0707978,18.2341424 93.0707978,17.4818034 L93.0710043,12.1135322 C93.0710043,9.71170169 94.5292543,8.39943051 96.2642435,8.39943051 C97.6975043,8.39943051 98.8288304,9.29068475 98.8288304,11.3955661 L98.8288304,17.4818034 C98.8288304,18.2341424 99.4599609,18.8498034 100.224091,18.8498034 C100.988222,18.8498034 101.619559,18.2341424 101.619559,17.4818034 L101.619765,10.4296678 Z" id="Fill-23" fill="#FF8300"></path>
                <path d="M119.529475,11.2716203 C119.755616,9.24117966 121.289453,8.22606102 122.92366,8.22606102 C124.532877,8.22606102 125.991127,9.21656949 126.041312,11.2716203 L119.529475,11.2716203 Z M127.708975,17.1868068 C128.216192,16.7531797 128.274018,16.0333831 127.88204,15.5234847 C127.471062,14.9885695 126.686899,14.877722 126.143747,15.2828746 L125.902323,15.4626712 C125.138192,16.0160949 124.224953,16.2735864 123.275779,16.2735864 C121.641366,16.2735864 120.032149,15.5057898 119.604649,13.5497898 L128.731671,13.5497898 C128.832247,12.9058576 128.832247,12.4106034 128.832247,11.9895864 C128.832247,7.78023051 126.142095,5.77460339 123.049432,5.77460339 C119.755616,5.77460339 116.587573,8.00314576 116.587573,12.2621288 C116.587573,16.5461288 119.881388,18.8487051 123.175203,18.8487051 C124.857323,18.8487051 126.427921,18.2989424 127.708975,17.1868068 L127.708975,17.1868068 Z" id="Fill-25" fill="#FF8300"></path>
                <g id="Group-29" transform="translate(142.086957, 2.467119)">
                    <mask id="mask-10" fill="white">
                        <use xlink:href="#path-9"></use>
                    </mask>
                    <g id="Clip-28"></g>
                    <path d="M8.23552935,13.8737492 C7.98543152,13.940461 7.73574674,13.9797153 7.49101848,13.9797153 C6.51045326,13.9797153 5.70584457,13.4598508 5.70584457,12.0729356 L5.70584457,6.15510508 L7.97427935,6.15510508 C8.67645326,6.15510508 9.25099674,5.58378305 9.25099674,4.89225763 C9.25099674,4.2007322 8.67645326,3.62941017 7.97427935,3.62941017 L5.70584457,3.62941017 L5.70563804,1.45212203 C5.70563804,0.706494915 5.0800837,0.0963254237 4.322975,0.0963254237 C3.56565978,0.0963254237 2.94010543,0.706494915 2.94010543,1.45212203 L2.94010543,3.62941017 L1.47627935,3.62941017 C0.774105435,3.62941017 0.199561957,4.2007322 0.199561957,4.89225763 C0.199561957,5.58378305 0.774105435,6.15510508 1.47627935,6.15510508 L2.94010543,6.15510508 L2.94010543,12.2218169 C2.94010543,15.0938847 4.95162717,16.3815458 7.11390978,16.3815458 C7.72789891,16.3815458 8.36790978,16.2747661 8.98210543,16.0744271 C9.69832283,15.8427661 9.94015978,15.2167322 9.75862717,14.6295458 C9.57069239,14.0220203 8.96351848,13.6746305 8.23552935,13.8737492" id="Fill-27" fill="#FF8300" mask="url(#mask-10)"></path>
                </g>
                <path d="M74.7211141,16.4618441 C73.4501793,18.015539 71.5313859,18.8498441 69.6144511,18.8498441 C66.4226576,18.8498441 63.253375,16.5712678 63.253375,12.311878 C63.253375,7.9792678 66.4720163,5.77553898 69.7152337,5.77553898 C71.4469185,5.77553898 73.195125,6.40747119 74.4598641,7.74435254 C74.8848859,8.21214915 74.9410598,8.83187797 74.6017446,9.30191186 C74.1988207,9.85879322 73.2746359,10.0599458 72.5513967,9.3891661 C71.7944946,8.62950508 70.8013315,8.3012339 69.8407989,8.3012339 C67.9302663,8.3012339 65.9949511,9.63811525 65.9949511,12.2874712 C65.9949511,14.8882169 67.9054837,16.2490983 69.7914402,16.2490983 C70.7313207,16.2490983 71.8665707,15.9049627 72.7261141,14.9712 C73.2498533,14.3490305 73.9417011,14.3636746 74.4580054,14.7057763 C75.033788,15.0846915 75.1771141,15.8618441 74.7211141,16.4618441" id="Fill-30" fill="#FF8300"></path>
                <path d="M141.523235,16.4618441 C140.2523,18.015539 138.3333,18.8498441 136.416572,18.8498441 C133.224778,18.8498441 130.055496,16.5712678 130.055496,12.311878 C130.055496,7.9792678 133.274137,5.77553898 136.517354,5.77553898 C138.249039,5.77553898 139.997246,6.40747119 141.261985,7.74435254 C141.687007,8.21214915 141.74318,8.83187797 141.403865,9.30191186 C141.000735,9.85879322 140.076757,10.0599458 139.353517,9.3891661 C138.596615,8.62950508 137.603246,8.3012339 136.64292,8.3012339 C134.73218,8.3012339 132.796865,9.63811525 132.796865,12.2874712 C132.796865,14.8882169 134.707604,16.2490983 136.593354,16.2490983 C137.533441,16.2490983 138.668691,15.9049627 139.528235,14.9712 C140.051767,14.3490305 140.743822,14.3636746 141.25992,14.7057763 C141.835909,15.0846915 141.979235,15.8618441 141.523235,16.4618441" id="Fill-32" fill="#FF8300"></path>
            </g>
        </g>
    </g>
</svg>