<svg xmlns="http://www.w3.org/2000/svg" xmlns:xlink="http://www.w3.org/1999/xlink" width="32.007" height="32.002" viewBox="0 0 32.007 32.002"><defs><style>.a{fill:url(#a);}</style><linearGradient id="a" x1="0.187" y1="0.164" x2="0.773" y2="0.875" gradientUnits="objectBoundingBox"><stop offset="0" stop-color="#008260"/><stop offset="0.527" stop-color="#51c21a"/><stop offset="1" stop-color="#b4eb00"/></linearGradient></defs><path class="a" d="M-2028.665,3864.35h0a15.881,15.881,0,0,1-9.39-3.057,15.9,15.9,0,0,1-6.4-10.441,15.9,15.9,0,0,1,2.859-11.908,16.041,16.041,0,0,1,5.8-4.914,16.146,16.146,0,0,1,7.16-1.682,15.881,15.881,0,0,1,9.392,3.057,15.894,15.894,0,0,1,6.4,10.441,15.893,15.893,0,0,1-2.859,11.907,16.042,16.042,0,0,1-5.8,4.914A16.147,16.147,0,0,1-2028.665,3864.35Zm.167-30.592h0a14.7,14.7,0,0,0-6.54,1.546,14.756,14.756,0,0,0-5.31,4.511,14.584,14.584,0,0,0-2.644,10.844,14.291,14.291,0,0,0,5.757,9.47,14.255,14.255,0,0,0,8.433,2.74,14.689,14.689,0,0,0,6.538-1.546,14.757,14.757,0,0,0,5.31-4.511,14.585,14.585,0,0,0,2.644-10.844,14.292,14.292,0,0,0-5.757-9.47,14.257,14.257,0,0,0-8.431-2.74Z" transform="translate(2044.655 -3832.348)"/></svg>