<svg xmlns="http://www.w3.org/2000/svg" width="264.897" height="264.897" viewBox="0 0 264.897 264.897"><defs><style>.a{fill:#fe8200;}</style></defs>
<g transform="translate(0 0)">
<circle class="a" cx="2.811" cy="2.811" r="2.811"/><circle class="a" cx="2.811" cy="2.811" r="2.811" transform="translate(21.866)"/><circle class="a" cx="2.811" cy="2.811" r="2.811" transform="translate(43.108)"/><circle class="a" cx="2.811" cy="2.811" r="2.811" transform="translate(64.975)"/><circle class="a" cx="2.811" cy="2.811" r="2.811" transform="translate(86.216)"/><circle class="a" cx="2.811" cy="2.811" r="2.811" transform="translate(108.083)"/><circle class="a" cx="2.811" cy="2.811" r="2.811" transform="translate(129.949)"/><circle class="a" cx="2.811" cy="2.811" r="2.811" transform="translate(151.191)"/><circle class="a" cx="2.811" cy="2.811" r="2.811" transform="translate(173.058)"/><circle class="a" cx="2.811" cy="2.811" r="2.811" transform="translate(194.299)"/><circle class="a" cx="2.811" cy="2.811" r="2.811" transform="translate(216.166)"/><circle class="a" cx="2.811" cy="2.811" r="2.811" transform="translate(237.407)"/><circle class="a" cx="2.811" cy="2.811" r="2.811" transform="translate(259.274)"/></g><g transform="translate(0 26.24)"><circle class="a" cx="2.811" cy="2.811" r="2.811"/><circle class="a" cx="2.811" cy="2.811" r="2.811" transform="translate(21.866)"/><circle class="a" cx="2.811" cy="2.811" r="2.811" transform="translate(43.108)"/><circle class="a" cx="2.811" cy="2.811" r="2.811" transform="translate(64.975)"/><circle class="a" cx="2.811" cy="2.811" r="2.811" transform="translate(86.216)"/><circle class="a" cx="2.811" cy="2.811" r="2.811" transform="translate(108.083)"/><circle class="a" cx="2.811" cy="2.811" r="2.811" transform="translate(129.949)"/><circle class="a" cx="2.811" cy="2.811" r="2.811" transform="translate(151.191)"/><circle class="a" cx="2.811" cy="2.811" r="2.811" transform="translate(173.058)"/><circle class="a" cx="2.811" cy="2.811" r="2.811" transform="translate(194.299)"/><circle class="a" cx="2.811" cy="2.811" r="2.811" transform="translate(216.166)"/><circle class="a" cx="2.811" cy="2.811" r="2.811" transform="translate(237.407)"/><circle class="a" cx="2.811" cy="2.811" r="2.811" transform="translate(259.274)"/></g>
<g transform="translate(0 51.855)"><circle class="a" cx="2.811" cy="2.811" r="2.811"/><circle class="a" cx="2.811" cy="2.811" r="2.811" transform="translate(21.866)"/><circle class="a" cx="2.811" cy="2.811" r="2.811" transform="translate(43.108)"/><circle class="a" cx="2.811" cy="2.811" r="2.811" transform="translate(64.975)"/><circle class="a" cx="2.811" cy="2.811" r="2.811" transform="translate(86.216)"/><circle class="a" cx="2.811" cy="2.811" r="2.811" transform="translate(108.083)"/><circle class="a" cx="2.811" cy="2.811" r="2.811" transform="translate(129.949)"/><circle class="a" cx="2.811" cy="2.811" r="2.811" transform="translate(151.191)"/><circle class="a" cx="2.811" cy="2.811" r="2.811" transform="translate(173.058)"/><circle class="a" cx="2.811" cy="2.811" r="2.811" transform="translate(194.299)"/><circle class="a" cx="2.811" cy="2.811" r="2.811" transform="translate(216.166)"/><circle class="a" cx="2.811" cy="2.811" r="2.811" transform="translate(237.407)"/><circle class="a" cx="2.811" cy="2.811" r="2.811" transform="translate(259.274)"/></g>
<g transform="translate(0 78.095)"><circle class="a" cx="2.811" cy="2.811" r="2.811"/><circle class="a" cx="2.811" cy="2.811" r="2.811" transform="translate(21.866)"/><circle class="a" cx="2.811" cy="2.811" r="2.811" transform="translate(43.108)"/><circle class="a" cx="2.811" cy="2.811" r="2.811" transform="translate(64.975)"/><circle class="a" cx="2.811" cy="2.811" r="2.811" transform="translate(86.216)"/><circle class="a" cx="2.811" cy="2.811" r="2.811" transform="translate(108.083)"/><circle class="a" cx="2.811" cy="2.811" r="2.811" transform="translate(129.949)"/><circle class="a" cx="2.811" cy="2.811" r="2.811" transform="translate(151.191)"/><circle class="a" cx="2.811" cy="2.811" r="2.811" transform="translate(173.058)"/><circle class="a" cx="2.811" cy="2.811" r="2.811" transform="translate(194.299)"/><circle class="a" cx="2.811" cy="2.811" r="2.811" transform="translate(216.166)"/><circle class="a" cx="2.811" cy="2.811" r="2.811" transform="translate(237.407)"/><circle class="a" cx="2.811" cy="2.811" r="2.811" transform="translate(259.274)"/></g>
<g transform="translate(0 103.71)"><circle class="a" cx="2.811" cy="2.811" r="2.811"/><circle class="a" cx="2.811" cy="2.811" r="2.811" transform="translate(21.866)"/><circle class="a" cx="2.811" cy="2.811" r="2.811" transform="translate(43.108)"/><circle class="a" cx="2.811" cy="2.811" r="2.811" transform="translate(64.975)"/><circle class="a" cx="2.811" cy="2.811" r="2.811" transform="translate(86.216)"/><circle class="a" cx="2.811" cy="2.811" r="2.811" transform="translate(108.083)"/><circle class="a" cx="2.811" cy="2.811" r="2.811" transform="translate(129.949)"/><circle class="a" cx="2.811" cy="2.811" r="2.811" transform="translate(151.191)"/><circle class="a" cx="2.811" cy="2.811" r="2.811" transform="translate(173.058)"/><circle class="a" cx="2.811" cy="2.811" r="2.811" transform="translate(194.299)"/><circle class="a" cx="2.811" cy="2.811" r="2.811" transform="translate(216.166)"/><circle class="a" cx="2.811" cy="2.811" r="2.811" transform="translate(237.407)"/><circle class="a" cx="2.811" cy="2.811" r="2.811" transform="translate(259.274)"/></g>
<g transform="translate(0 129.949)"><circle class="a" cx="2.811" cy="2.811" r="2.811"/><circle class="a" cx="2.811" cy="2.811" r="2.811" transform="translate(21.866)"/><circle class="a" cx="2.811" cy="2.811" r="2.811" transform="translate(43.108)"/><circle class="a" cx="2.811" cy="2.811" r="2.811" transform="translate(64.975)"/><circle class="a" cx="2.811" cy="2.811" r="2.811" transform="translate(86.216)"/><circle class="a" cx="2.811" cy="2.811" r="2.811" transform="translate(108.083)"/><circle class="a" cx="2.811" cy="2.811" r="2.811" transform="translate(129.949)"/><circle class="a" cx="2.811" cy="2.811" r="2.811" transform="translate(151.191)"/><circle class="a" cx="2.811" cy="2.811" r="2.811" transform="translate(173.058)"/><circle class="a" cx="2.811" cy="2.811" r="2.811" transform="translate(194.299)"/><circle class="a" cx="2.811" cy="2.811" r="2.811" transform="translate(216.166)"/><circle class="a" cx="2.811" cy="2.811" r="2.811" transform="translate(237.407)"/><circle class="a" cx="2.811" cy="2.811" r="2.811" transform="translate(259.274)"/></g>
<g transform="translate(0 155.564)"><circle class="a" cx="2.811" cy="2.811" r="2.811"/><circle class="a" cx="2.811" cy="2.811" r="2.811" transform="translate(21.866)"/><circle class="a" cx="2.811" cy="2.811" r="2.811" transform="translate(43.108)"/><circle class="a" cx="2.811" cy="2.811" r="2.811" transform="translate(64.975)"/><circle class="a" cx="2.811" cy="2.811" r="2.811" transform="translate(86.216)"/><circle class="a" cx="2.811" cy="2.811" r="2.811" transform="translate(108.083)"/><circle class="a" cx="2.811" cy="2.811" r="2.811" transform="translate(129.949)"/><circle class="a" cx="2.811" cy="2.811" r="2.811" transform="translate(151.191)"/><circle class="a" cx="2.811" cy="2.811" r="2.811" transform="translate(173.058)"/><circle class="a" cx="2.811" cy="2.811" r="2.811" transform="translate(194.299)"/><circle class="a" cx="2.811" cy="2.811" r="2.811" transform="translate(216.166)"/><circle class="a" cx="2.811" cy="2.811" r="2.811" transform="translate(237.407)"/><circle class="a" cx="2.811" cy="2.811" r="2.811" transform="translate(259.274)"/></g>
<g transform="translate(0 181.804)"><circle class="a" cx="2.811" cy="2.811" r="2.811"/><circle class="a" cx="2.811" cy="2.811" r="2.811" transform="translate(21.866)"/><circle class="a" cx="2.811" cy="2.811" r="2.811" transform="translate(43.108)"/><circle class="a" cx="2.811" cy="2.811" r="2.811" transform="translate(64.975)"/><circle class="a" cx="2.811" cy="2.811" r="2.811" transform="translate(86.216)"/><circle class="a" cx="2.811" cy="2.811" r="2.811" transform="translate(108.083)"/><circle class="a" cx="2.811" cy="2.811" r="2.811" transform="translate(129.949)"/><circle class="a" cx="2.811" cy="2.811" r="2.811" transform="translate(151.191)"/><circle class="a" cx="2.811" cy="2.811" r="2.811" transform="translate(173.058)"/><circle class="a" cx="2.811" cy="2.811" r="2.811" transform="translate(194.299)"/><circle class="a" cx="2.811" cy="2.811" r="2.811" transform="translate(216.166)"/><circle class="a" cx="2.811" cy="2.811" r="2.811" transform="translate(237.407)"/><circle class="a" cx="2.811" cy="2.811" r="2.811" transform="translate(259.274)"/></g>
<g transform="translate(0 207.419)"><circle class="a" cx="2.811" cy="2.811" r="2.811"/><circle class="a" cx="2.811" cy="2.811" r="2.811" transform="translate(21.866)"/><circle class="a" cx="2.811" cy="2.811" r="2.811" transform="translate(43.108)"/><circle class="a" cx="2.811" cy="2.811" r="2.811" transform="translate(64.975)"/><circle class="a" cx="2.811" cy="2.811" r="2.811" transform="translate(86.216)"/><circle class="a" cx="2.811" cy="2.811" r="2.811" transform="translate(108.083)"/><circle class="a" cx="2.811" cy="2.811" r="2.811" transform="translate(129.949)"/><circle class="a" cx="2.811" cy="2.811" r="2.811" transform="translate(151.191)"/><circle class="a" cx="2.811" cy="2.811" r="2.811" transform="translate(173.058)"/><circle class="a" cx="2.811" cy="2.811" r="2.811" transform="translate(194.299)"/><circle class="a" cx="2.811" cy="2.811" r="2.811" transform="translate(216.166)"/><circle class="a" cx="2.811" cy="2.811" r="2.811" transform="translate(237.407)"/><circle class="a" cx="2.811" cy="2.811" r="2.811" transform="translate(259.274)"/></g>
<g transform="translate(0 233.659)"><circle class="a" cx="2.811" cy="2.811" r="2.811"/><circle class="a" cx="2.811" cy="2.811" r="2.811" transform="translate(21.866)"/><circle class="a" cx="2.811" cy="2.811" r="2.811" transform="translate(43.108)"/><circle class="a" cx="2.811" cy="2.811" r="2.811" transform="translate(64.975)"/><circle class="a" cx="2.811" cy="2.811" r="2.811" transform="translate(86.216)"/><circle class="a" cx="2.811" cy="2.811" r="2.811" transform="translate(108.083)"/><circle class="a" cx="2.811" cy="2.811" r="2.811" transform="translate(129.949)"/><circle class="a" cx="2.811" cy="2.811" r="2.811" transform="translate(151.191)"/><circle class="a" cx="2.811" cy="2.811" r="2.811" transform="translate(173.058)"/><circle class="a" cx="2.811" cy="2.811" r="2.811" transform="translate(194.299)"/><circle class="a" cx="2.811" cy="2.811" r="2.811" transform="translate(216.166)"/><circle class="a" cx="2.811" cy="2.811" r="2.811" transform="translate(237.407)"/><circle class="a" cx="2.811" cy="2.811" r="2.811" transform="translate(259.274)"/></g>
<g transform="translate(0 259.274)"><circle class="a" cx="2.811" cy="2.811" r="2.811"/><circle class="a" cx="2.811" cy="2.811" r="2.811" transform="translate(21.866)"/><circle class="a" cx="2.811" cy="2.811" r="2.811" transform="translate(43.108)"/><circle class="a" cx="2.811" cy="2.811" r="2.811" transform="translate(64.975)"/><circle class="a" cx="2.811" cy="2.811" r="2.811" transform="translate(86.216)"/><circle class="a" cx="2.811" cy="2.811" r="2.811" transform="translate(108.083)"/><circle class="a" cx="2.811" cy="2.811" r="2.811" transform="translate(129.949)"/><circle class="a" cx="2.811" cy="2.811" r="2.811" transform="translate(151.191)"/><circle class="a" cx="2.811" cy="2.811" r="2.811" transform="translate(173.058)"/><circle class="a" cx="2.811" cy="2.811" r="2.811" transform="translate(194.299)"/><circle class="a" cx="2.811" cy="2.811" r="2.811" transform="translate(216.166)"/><circle class="a" cx="2.811" cy="2.811" r="2.811" transform="translate(237.407)"/><circle class="a" cx="2.811" cy="2.811" r="2.811" transform="translate(259.274)"/></g>

</svg>