<svg xmlns="http://www.w3.org/2000/svg" width="264.897" height="264.897" viewBox="0 0 264.897 264.897">
  <path id="Subtraction_18" data-name="Subtraction 18" d="M311.638,294.4a2.812,2.812,0,1,1,2.812-2.812A2.815,2.815,0,0,1,311.638,294.4Zm-21.867,0a2.812,2.812,0,1,1,2.813-2.812A2.814,2.814,0,0,1,289.77,294.4Zm-21.241,0a2.812,2.812,0,1,1,2.812-2.812A2.815,2.815,0,0,1,268.529,294.4Zm-21.866,0a2.812,2.812,0,1,1,2.812-2.812A2.815,2.815,0,0,1,246.663,294.4Zm-21.242,0a2.812,2.812,0,1,1,2.812-2.812A2.815,2.815,0,0,1,225.421,294.4Zm-21.866,0a2.812,2.812,0,1,1,2.812-2.812A2.815,2.815,0,0,1,203.555,294.4Zm-21.242,0a2.812,2.812,0,1,1,2.812-2.812A2.815,2.815,0,0,1,182.313,294.4Zm-21.866,0a2.812,2.812,0,1,1,2.811-2.812A2.815,2.815,0,0,1,160.447,294.4Zm-21.866,0a2.812,2.812,0,1,1,2.812-2.812A2.815,2.815,0,0,1,138.58,294.4Zm-21.242,0a2.812,2.812,0,1,1,2.812-2.812A2.815,2.815,0,0,1,117.338,294.4Zm-21.866,0a2.812,2.812,0,1,1,2.812-2.812A2.815,2.815,0,0,1,95.472,294.4Zm-21.242,0a2.812,2.812,0,1,1,2.812-2.812A2.815,2.815,0,0,1,74.23,294.4Zm-21.866,0a2.812,2.812,0,1,1,2.812-2.812A2.815,2.815,0,0,1,52.364,294.4Zm259.274-25.615a2.812,2.812,0,1,1,2.812-2.812A2.815,2.815,0,0,1,311.638,268.785Zm-21.867,0a2.812,2.812,0,1,1,2.813-2.812A2.814,2.814,0,0,1,289.77,268.785ZM271,267.313h0V264.63a2.815,2.815,0,0,1,0,2.683Zm40.636-24.768a2.812,2.812,0,1,1,2.812-2.812A2.815,2.815,0,0,1,311.638,242.546Zm-21.867,0a2.812,2.812,0,1,1,2.813-2.812A2.814,2.814,0,0,1,289.77,242.546ZM271,241.074h0v-2.682a2.815,2.815,0,0,1,0,2.683Zm40.636-24.143a2.812,2.812,0,1,1,2.812-2.812A2.815,2.815,0,0,1,311.638,216.931Zm-21.867,0a2.812,2.812,0,1,1,2.813-2.812A2.814,2.814,0,0,1,289.77,216.931ZM271,215.459h0v-2.682a2.815,2.815,0,0,1,0,2.683Zm40.636-24.768a2.812,2.812,0,1,1,2.812-2.812A2.815,2.815,0,0,1,311.638,190.69Zm-21.867,0a2.812,2.812,0,1,1,2.813-2.812A2.814,2.814,0,0,1,289.77,190.69ZM271,189.218h0v-2.682a2.815,2.815,0,0,1,0,2.683Zm40.636-24.143a2.812,2.812,0,1,1,2.812-2.812A2.815,2.815,0,0,1,311.638,165.075Zm-21.867,0a2.812,2.812,0,1,1,2.813-2.812A2.814,2.814,0,0,1,289.77,165.075ZM271,163.6h0v-2.682a2.815,2.815,0,0,1,0,2.683Zm40.636-24.768a2.812,2.812,0,1,1,2.812-2.812A2.815,2.815,0,0,1,311.638,138.836Zm-21.867,0a2.812,2.812,0,1,1,2.813-2.812A2.814,2.814,0,0,1,289.77,138.836ZM271,137.364h0v-2.682a2.815,2.815,0,0,1,0,2.683Zm40.636-24.143a2.812,2.812,0,1,1,2.812-2.812A2.815,2.815,0,0,1,311.638,113.221Zm-21.867,0a2.812,2.812,0,1,1,2.813-2.812A2.814,2.814,0,0,1,289.77,113.221ZM271,111.749h0v-2.682a2.815,2.815,0,0,1,0,2.683ZM311.638,86.98a2.812,2.812,0,1,1,2.812-2.812A2.815,2.815,0,0,1,311.638,86.98Zm-21.867,0a2.812,2.812,0,1,1,2.813-2.812A2.814,2.814,0,0,1,289.77,86.98ZM271,85.509h0V82.826a2.815,2.815,0,0,1,0,2.683Zm40.636-24.143a2.812,2.812,0,1,1,2.812-2.812A2.815,2.815,0,0,1,311.638,61.366Zm-21.867,0a2.812,2.812,0,1,1,2.813-2.812A2.814,2.814,0,0,1,289.77,61.366ZM271,59.894h0V57.211a2.815,2.815,0,0,1,0,2.683Zm40.636-24.768a2.812,2.812,0,1,1,2.812-2.812A2.815,2.815,0,0,1,311.638,35.126Zm-21.867,0a2.812,2.812,0,1,1,2.813-2.812A2.814,2.814,0,0,1,289.77,35.126ZM271,33.654h0V30.971a2.815,2.815,0,0,1,0,2.683Z" transform="translate(-49.552 -29.503)" fill="#ff8300"/>
</svg>
