<svg xmlns="http://www.w3.org/2000/svg" width="264.897" height="264.897" viewBox="0 0 264.897 264.897">
  <path id="Subtraction_19" data-name="Subtraction 19" d="M262.085,291a2.812,2.812,0,1,1,2.812-2.812A2.815,2.815,0,0,1,262.085,291Zm-21.866,0a2.812,2.812,0,1,1,2.812-2.812A2.815,2.815,0,0,1,240.219,291Zm-21.242,0a2.812,2.812,0,1,1,2.812-2.812A2.815,2.815,0,0,1,218.977,291Zm-21.866,0a2.812,2.812,0,1,1,2.812-2.812A2.815,2.815,0,0,1,197.111,291Zm-21.242,0a2.812,2.812,0,1,1,2.812-2.812A2.815,2.815,0,0,1,175.869,291ZM154,291a2.812,2.812,0,1,1,2.812-2.812A2.815,2.815,0,0,1,154,291Zm-21.242,0a2.812,2.812,0,1,1,2.812-2.812A2.815,2.815,0,0,1,132.761,291Zm-21.866,0a2.812,2.812,0,1,1,2.812-2.812A2.815,2.815,0,0,1,110.894,291Zm-21.866,0a2.812,2.812,0,1,1,2.812-2.812A2.815,2.815,0,0,1,89.028,291Zm-21.242,0a2.812,2.812,0,1,1,2.812-2.812A2.815,2.815,0,0,1,67.786,291ZM45.92,291a2.812,2.812,0,1,1,2.812-2.812A2.815,2.815,0,0,1,45.92,291Zm-21.242,0a2.812,2.812,0,1,1,2.812-2.812A2.815,2.815,0,0,1,24.678,291ZM2.812,291a2.812,2.812,0,1,1,2.812-2.812A2.815,2.815,0,0,1,2.812,291Zm21.866-25.615a2.812,2.812,0,1,1,2.812-2.812A2.815,2.815,0,0,1,24.678,265.386Zm-21.866,0a2.812,2.812,0,1,1,2.812-2.812A2.815,2.815,0,0,1,2.812,265.386Zm21.866-26.24a2.812,2.812,0,1,1,2.812-2.812A2.815,2.815,0,0,1,24.678,239.146Zm-21.866,0a2.812,2.812,0,1,1,2.812-2.812A2.815,2.815,0,0,1,2.812,239.146Zm21.866-25.615a2.812,2.812,0,1,1,2.812-2.812A2.815,2.815,0,0,1,24.678,213.531Zm-21.866,0a2.812,2.812,0,1,1,2.812-2.812A2.815,2.815,0,0,1,2.812,213.531Zm21.866-26.24a2.812,2.812,0,1,1,2.812-2.812A2.815,2.815,0,0,1,24.678,187.291Zm-21.866,0a2.812,2.812,0,1,1,2.812-2.812A2.815,2.815,0,0,1,2.812,187.291Zm21.866-25.615a2.812,2.812,0,1,1,2.812-2.812A2.815,2.815,0,0,1,24.678,161.676Zm-21.866,0a2.812,2.812,0,1,1,2.812-2.812A2.815,2.815,0,0,1,2.812,161.676Zm21.866-26.24a2.812,2.812,0,1,1,2.812-2.812A2.815,2.815,0,0,1,24.678,135.437Zm-21.866,0a2.812,2.812,0,1,1,2.812-2.812A2.815,2.815,0,0,1,2.812,135.437Zm21.866-25.615a2.812,2.812,0,1,1,2.812-2.812A2.815,2.815,0,0,1,24.678,109.822Zm-21.866,0a2.812,2.812,0,1,1,2.812-2.812A2.815,2.815,0,0,1,2.812,109.822Zm21.866-26.24A2.812,2.812,0,1,1,27.49,80.77,2.815,2.815,0,0,1,24.678,83.581Zm-21.866,0A2.812,2.812,0,1,1,5.623,80.77,2.815,2.815,0,0,1,2.812,83.581ZM24.678,57.966a2.812,2.812,0,1,1,2.812-2.812A2.815,2.815,0,0,1,24.678,57.966Zm-21.866,0a2.812,2.812,0,1,1,2.812-2.812A2.815,2.815,0,0,1,2.812,57.966Zm21.866-26.24a2.812,2.812,0,1,1,2.812-2.812A2.815,2.815,0,0,1,24.678,31.727Zm-21.866,0a2.812,2.812,0,1,1,2.812-2.812A2.815,2.815,0,0,1,2.812,31.727Z" transform="translate(0 -26.104)" fill="#ff8300"/>
</svg>
