<svg xmlns="http://www.w3.org/2000/svg" xmlns:xlink="http://www.w3.org/1999/xlink" width="984.246" height="42.188" viewBox="0 0 984.246 42.188"><defs><style>.a{fill:#f86a0d;}.b{fill:url(#a);}.c,.h{fill:#bdbdbd;}.c,.d,.e,.f{stroke:#bdbdbd;}.d{fill:#bdbdbe;}.e{fill:#b4b5b5;}.f{fill:#bdbebd;}.g,.h{font-size:16px;font-family:BuenosAires-Regular, Buenos Aires TTF;}</style><linearGradient id="a" y1="0.551" x2="1" y2="0.554" gradientUnits="objectBoundingBox"><stop offset="0" stop-color="#e11937"/><stop offset="1" stop-color="#ff8300"/></linearGradient></defs><g transform="translate(-97 -248.813)"><g transform="translate(-11.561 -3597)"><rect class="a" width="943.453" height="1.25" transform="translate(131.326 3879.792)"/><rect class="b" width="128.588" height="1.25" transform="translate(129.816 3879.792)"/><ellipse class="a" cx="8.25" cy="8.25" rx="8.25" ry="8.25" transform="translate(116 3871.5)"/><g transform="translate(379.5 3847)"><ellipse class="c" cx="5.561" cy="5.561" rx="5.561" ry="5.561" transform="translate(12.5 27.188)"/></g><g transform="translate(514.5 3847.813)"><ellipse class="d" cx="5.561" cy="5.561" rx="5.561" ry="5.561" transform="translate(12.5 27.188)"/></g><g transform="translate(650.5 3847.813)"><ellipse class="c" cx="5.561" cy="5.561" rx="5.561" ry="5.561" transform="translate(12.5 27.188)"/></g><g transform="translate(784.5 3847.813)"><ellipse class="c" cx="5.561" cy="5.561" rx="5.561" ry="5.561" transform="translate(13.5 27.188)"/></g><g transform="translate(920.574 3847.813)"><ellipse class="c" cx="5.561" cy="5.561" rx="5.561" ry="5.561" transform="translate(12.426 27.188)"/></g><g transform="translate(1050.5 3847.813)"><ellipse class="e" cx="5.561" cy="5.561" rx="5.561" ry="5.561" transform="translate(18.5 27.188)"/></g><ellipse class="f" cx="5.561" cy="5.561" rx="5.561" ry="5.561" transform="translate(256.5 3874.189)"/></g><text class="g" transform="translate(97 263.813)"><tspan x="0" y="0">2001</tspan></text><text class="h" transform="translate(234.465 263.813)"><tspan x="0" y="0">2002</tspan></text><text class="h" transform="translate(368.246 264)"><tspan x="0" y="0">2003</tspan></text><text class="h" transform="translate(503.246 264)"><tspan x="0" y="0">2004</tspan></text><text class="h" transform="translate(638.246 264)"><tspan x="0" y="0">2005</tspan></text><text class="h" transform="translate(774.246 264)"><tspan x="0" y="0">2006</tspan></text><text class="h" transform="translate(908.246 264)"><tspan x="0" y="0">2007</tspan></text><text class="h" transform="translate(1043.246 264)"><tspan x="0" y="0">2008</tspan></text></g></svg>