<svg xmlns="http://www.w3.org/2000/svg" width="338.998" height="354.001" viewBox="0 0 338.998 354.001">
  <path id="Subtraction_20" data-name="Subtraction 20" d="M-10557.5,1939.5h-151.17a63.011,63.011,0,0,0,16.738-5.483,117.693,117.693,0,0,0,18.659-11.285,187.463,187.463,0,0,0,19.8-16.788,259.131,259.131,0,0,0,20.152-21.99,321.127,321.127,0,0,0,19.726-26.894c6.559-9.965,12.787-20.562,18.514-31.5a408.472,408.472,0,0,0,30.266-75.607c1.985-6.845,3.612-13.463,4.837-19.669a163.488,163.488,0,0,0,2.481-17.017Zm-162.709,0H-10896.5V1676.183c1.57,24.642,6.777,52.065,15.061,79.3a405.611,405.611,0,0,0,15.141,41.532,366.833,366.833,0,0,0,20.025,39.986,298.454,298.454,0,0,0,24.765,36.341,226.6,226.6,0,0,0,29.363,30.6c22.329,19.087,46.531,31.051,71.935,35.558Zm162.707-247.214a79.154,79.154,0,0,0-3.467-16.58,71.813,71.813,0,0,0-5.949-13.338c-4.581-8.014-10.109-14.4-15.456-20.572-3.426-3.957-6.661-7.694-9.477-11.66a42.279,42.279,0,0,0-11.381-10.329,106.794,106.794,0,0,0-16.909-8.777c-11.178-4.73-25.215-9.143-41.722-13.115-8.1-1.951-21.237-4.845-37.775-7.554-9.918-1.625-16.389-2.415-16.453-2.423-10.363-1.113-21.951-1.956-33.513-2.439h192.1v106.787Zm-338.994-45.477h0V1585.5h100.366c-11.75.532-22.739,1.488-32.664,2.842a198.025,198.025,0,0,0-28.651,5.846c-18.6,5.462-29.8,13.175-33.311,22.925C-10893.712,1625.32-10895.643,1635.312-10896.5,1646.81Z" transform="translate(10896.499 -1585.5)" fill="#fcfcfc"/>
</svg>
